<svg xmlns="http://www.w3.org/2000/svg" xmlns:xlink="http://www.w3.org/1999/xlink" width="70" zoomAndPan="magnify" viewBox="0 0 52.5 30.000001" height="40" preserveAspectRatio="xMidYMid meet" version="1.0"><defs><g/><clipPath id="id1"><path d="M 15.601562 7.144531 L 33 7.144531 L 33 22 L 15.601562 22 Z M 15.601562 7.144531 " clip-rule="nonzero"/></clipPath><clipPath id="id2"><path d="M 16 7.144531 L 34.1875 7.144531 L 34.1875 22.214844 L 16 22.214844 Z M 16 7.144531 " clip-rule="nonzero"/></clipPath><clipPath id="id3"><path d="M 16 7.144531 L 34 7.144531 L 34 22 L 16 22 Z M 16 7.144531 " clip-rule="nonzero"/></clipPath><clipPath id="id4"><path d="M 42 10 L 51.410156 10 L 51.410156 20 L 42 20 Z M 42 10 " clip-rule="nonzero"/></clipPath></defs><g clip-path="url(#id1)"><path fill="#ff66c4" d="M 26.914062 7.21875 C 25.5625 7.269531 24.257812 7.578125 23.007812 8.144531 L 19.296875 8.285156 L 18.855469 8.769531 L 16.699219 8.851562 L 15.789062 9.632812 L 18.152344 9.546875 L 17.867188 9.859375 L 20.445312 9.761719 C 20.265625 9.914062 20.09375 10.066406 19.921875 10.230469 L 22.847656 10.121094 L 22.15625 10.917969 L 19.167969 11.027344 C 18.246094 12.117188 17.585938 13.359375 17.191406 14.765625 C 16.789062 16.203125 16.765625 17.460938 17.125 18.535156 C 17.207031 18.773438 17.308594 18.996094 17.421875 19.207031 L 16.609375 19.238281 L 15.625 20.277344 L 18.128906 20.183594 C 18.421875 20.492188 18.765625 20.765625 19.160156 20.992188 C 20.15625 21.554688 21.382812 21.808594 22.839844 21.753906 C 23.992188 21.707031 25.023438 21.484375 25.933594 21.078125 C 26.84375 20.65625 27.644531 20.15625 28.332031 19.570312 C 29.023438 18.972656 29.605469 18.367188 30.074219 17.75 L 27.347656 16.398438 C 26.945312 16.972656 26.40625 17.46875 25.738281 17.894531 C 25.082031 18.304688 24.417969 18.523438 23.738281 18.546875 C 22.582031 18.589844 21.742188 18.238281 21.210938 17.484375 C 20.6875 16.722656 20.582031 15.765625 20.902344 14.625 C 21.226562 13.46875 21.871094 12.492188 22.835938 11.699219 C 23.800781 10.890625 24.859375 10.464844 26.015625 10.421875 C 26.695312 10.398438 27.25 10.574219 27.679688 10.957031 C 28.128906 11.328125 28.394531 11.789062 28.480469 12.34375 L 32.988281 10.300781 L 31.234375 7.851562 L 30.078125 7.875 C 29.339844 7.386719 28.285156 7.164062 26.914062 7.21875 Z M 26.914062 7.21875 " fill-opacity="1" fill-rule="nonzero"/></g><g clip-path="url(#id2)"><path fill="#36d9ff" d="M 28.089844 7.625 C 26.734375 7.675781 25.433594 7.988281 24.183594 8.550781 L 20.46875 8.691406 L 20.03125 9.175781 L 17.875 9.257812 L 16.964844 10.042969 L 19.328125 9.953125 L 19.042969 10.265625 L 21.621094 10.171875 C 21.441406 10.320312 21.265625 10.476562 21.097656 10.636719 L 24.023438 10.527344 L 23.332031 11.324219 L 20.34375 11.4375 C 19.421875 12.523438 18.761719 13.769531 18.367188 15.171875 C 17.964844 16.609375 17.941406 17.867188 18.296875 18.945312 C 18.378906 19.179688 18.480469 19.402344 18.59375 19.613281 L 17.785156 19.644531 L 16.800781 20.6875 L 19.300781 20.589844 C 19.597656 20.898438 19.9375 21.171875 20.332031 21.402344 C 21.332031 21.960938 22.558594 22.214844 24.011719 22.160156 C 25.167969 22.117188 26.199219 21.890625 27.105469 21.484375 C 28.015625 21.066406 28.816406 20.5625 29.503906 19.976562 C 30.199219 19.378906 30.777344 18.773438 31.246094 18.15625 L 28.519531 16.804688 C 28.117188 17.378906 27.582031 17.878906 26.910156 18.300781 C 26.257812 18.710938 25.589844 18.929688 24.910156 18.957031 C 23.757812 19 22.914062 18.644531 22.386719 17.894531 C 21.859375 17.128906 21.757812 16.175781 22.078125 15.03125 C 22.402344 13.875 23.046875 12.902344 24.007812 12.105469 C 24.972656 11.300781 26.035156 10.875 27.191406 10.828125 C 27.871094 10.804688 28.425781 10.984375 28.855469 11.367188 C 29.300781 11.734375 29.570312 12.195312 29.65625 12.75 L 34.164062 10.707031 L 32.40625 8.257812 L 31.25 8.28125 C 30.515625 7.792969 29.460938 7.574219 28.089844 7.625 Z M 28.089844 7.625 " fill-opacity="1" fill-rule="nonzero"/></g><g clip-path="url(#id3)"><path fill="#000000" d="M 27.535156 7.195312 C 26.183594 7.246094 24.878906 7.554688 23.628906 8.121094 L 19.917969 8.261719 L 19.476562 8.746094 L 17.320312 8.828125 L 16.410156 9.609375 L 18.773438 9.523438 L 18.488281 9.835938 L 21.066406 9.738281 C 20.886719 9.890625 20.710938 10.042969 20.542969 10.207031 L 23.46875 10.097656 L 22.777344 10.894531 L 19.789062 11.003906 C 18.867188 12.09375 18.207031 13.335938 17.8125 14.742188 C 17.410156 16.179688 17.386719 17.4375 17.742188 18.515625 C 17.828125 18.75 17.929688 18.972656 18.039062 19.183594 L 17.230469 19.214844 L 16.246094 20.253906 L 18.75 20.160156 C 19.042969 20.46875 19.386719 20.742188 19.777344 20.96875 C 20.777344 21.53125 22.003906 21.785156 23.457031 21.730469 C 24.613281 21.683594 25.644531 21.460938 26.554688 21.054688 C 27.464844 20.632812 28.265625 20.132812 28.953125 19.546875 C 29.644531 18.949219 30.222656 18.34375 30.695312 17.726562 L 27.96875 16.375 C 27.5625 16.949219 27.027344 17.445312 26.355469 17.871094 C 25.703125 18.28125 25.039062 18.5 24.359375 18.523438 C 23.203125 18.566406 22.363281 18.214844 21.832031 17.460938 C 21.308594 16.699219 21.203125 15.742188 21.523438 14.601562 C 21.847656 13.445312 22.492188 12.46875 23.453125 11.675781 C 24.421875 10.867188 25.480469 10.441406 26.636719 10.398438 C 27.316406 10.375 27.871094 10.550781 28.300781 10.933594 C 28.75 11.304688 29.015625 11.765625 29.101562 12.320312 L 33.609375 10.277344 L 31.855469 7.828125 L 30.699219 7.851562 C 29.960938 7.363281 28.90625 7.140625 27.535156 7.195312 Z M 27.535156 7.195312 " fill-opacity="1" fill-rule="nonzero"/></g><g fill="#000000" fill-opacity="1"><g transform="translate(0.806576, 21.384389)"><g><path d="M 9.171875 -1.5 L 0.609375 -5.3125 L 0.609375 -6.765625 L 9.171875 -11.046875 L 9.171875 -8.53125 L 3.921875 -6.140625 L 9.171875 -4 Z M 9.171875 -1.5 "/></g></g></g><g fill="#000000" fill-opacity="1"><g transform="translate(34.143269, 21.310251)"><g><path d="M 7.65625 -12.609375 L 3.03125 0.171875 L 0.078125 0.171875 L 4.71875 -12.609375 Z M 7.65625 -12.609375 "/></g></g></g><g clip-path="url(#id4)"><g fill="#000000" fill-opacity="1"><g transform="translate(41.837888, 21.310251)"><g><path d="M 0.609375 -4.015625 L 5.875 -6.15625 L 0.609375 -8.5625 L 0.609375 -11.09375 L 9.203125 -6.796875 L 9.203125 -5.328125 L 0.609375 -1.515625 Z M 0.609375 -4.015625 "/></g></g></g></g></svg>